<svg width="28" height="32" viewBox="0 0 28 32" fill="none" xmlns="http://www.w3.org/2000/svg">
<path d="M2.38298 1.61235C2.98508 0.615314 4.10559 0 5.31915 0H22.6808C23.8944 0 25.0149 0.615315 25.617 1.61236L27.5494 4.81236C28.645 6.62661 27.6315 8.81771 25.7068 9.43251C25.7137 9.56258 25.7124 9.69456 25.7024 9.82799L24.2531 29.028C24.1267 30.7026 22.6541 32 20.8799 32H7.12004C5.34586 32 3.87331 30.7026 3.7469 29.028L2.29759 9.82799C2.28752 9.69456 2.28622 9.56257 2.29321 9.4325C0.368458 8.81768 -0.645022 6.6266 0.450564 4.81236L2.38298 1.61235ZM5.67073 9.6L6.03306 14.4H21.9669L22.3292 9.6H5.67073ZM6.75772 24L7.12004 28.8H20.8799L21.2422 24H6.75772ZM24.6133 6.4L22.6808 3.2L5.31915 3.2L3.38673 6.4H24.6133Z" fill="#2E3A59"/>
</svg>
