<svg width="30" height="32" viewBox="0 0 30 32" fill="none" xmlns="http://www.w3.org/2000/svg">
<path d="M3.72965 21.1597C1.58345 20.5601 0 18.4773 0 16C0 14.0681 0.96301 12.3761 2.40493 11.4403C2.95162 11.0856 3.33333 10.4604 3.33333 9.77778C3.33333 4.37766 7.43739 0 12.5 0C14.3866 0 16.14 0.607898 17.5976 1.65007C18.2174 2.09325 19.023 2.13908 19.7434 1.93139C20.0908 1.83122 20.4562 1.77778 20.8333 1.77778C23.1345 1.77778 25 3.76762 25 6.22222C25 6.82264 25.3282 7.40824 25.8494 7.63498C28.2841 8.69413 30 11.2444 30 14.2222C30 16.996 28.5111 19.3989 26.3393 20.5711L25.1825 30.4427C25.0782 31.3324 24.3692 32 23.5287 32H6.4713C5.63076 32 4.92176 31.3324 4.81751 30.4427L3.72965 21.1597ZM6.66667 9.77778C6.66667 11.8922 5.51533 13.5837 4.13743 14.4779C3.64809 14.7955 3.33333 15.3602 3.33333 16C3.33333 16.9818 4.07953 17.7778 5 17.7778H23.3333C25.1743 17.7778 26.6667 16.1859 26.6667 14.2222C26.6667 12.7389 25.8142 11.4595 24.5906 10.9273C22.6665 10.0902 21.6667 8.0889 21.6667 6.22222C21.6667 5.7313 21.2936 5.33333 20.8333 5.33333C20.7526 5.33333 20.6796 5.34461 20.6132 5.36376C19.2619 5.75336 17.3885 5.78107 15.7416 4.60348C14.8159 3.94159 13.7052 3.55556 12.5 3.55556C9.27834 3.55556 6.66667 6.34134 6.66667 9.77778ZM7.10927 21.3333L7.94261 28.4444H10V21.3333H7.10927ZM16.6667 28.4444V21.3333H13.3333V28.4444H16.6667ZM20 28.4444H22.0574L22.8907 21.3333H20V28.4444Z" fill="#2E3A59"/>
</svg>
